<svg width="30" height="30" viewBox="0 0 30 30" fill="none" xmlns="http://www.w3.org/2000/svg">
<mask id="mask0_269_752" style="mask-type:alpha" maskUnits="userSpaceOnUse" x="0" y="0" width="30" height="30">
<circle cx="15" cy="15" r="15" fill="#C4C4C4"/>
</mask>
<g mask="url(#mask0_269_752)">
<path d="M11.2258 0H-7.24146V9.94909H11.2258V0Z" fill="#00237C"/>
<path d="M-2.17211 0H-7.24146V3.13071L17.4856 19.5793L23.5046 17.0819L-2.17211 0Z" fill="white"/>
<path d="M-7.24146 0.260498V2.41202L17.8155 19.0807L18.7919 17.5805L-7.24146 0.260498Z" fill="#CF142B"/>
<path d="M37.2412 0H18.7739V9.94909H37.2412V0Z" fill="#00237C"/>
<path d="M32.172 0H37.2414V3.13071L12.5144 19.5793L6.49536 17.0819L32.172 0Z" fill="white"/>
<path d="M37.2414 0.260498V2.41202L12.1845 19.0807L11.2036 17.5805L37.2414 0.260498Z" fill="#CF142B"/>
<path d="M37.2412 20.0509H18.7739V30H37.2412V20.0509Z" fill="#00237C"/>
<path d="M32.172 30.0001H37.2414V26.8693L12.5144 10.4208L6.49536 12.9182L32.172 30.0001Z" fill="white"/>
<path d="M37.2414 29.7395V27.588L12.1845 10.9238L11.2036 12.4196L37.2414 29.7395Z" fill="#CF142B"/>
<path d="M11.2258 20.0509H-7.24146V30H11.2258V20.0509Z" fill="#00237C"/>
<path d="M-2.17211 30.0001H-7.24146V26.8693L17.4856 10.4208L23.5046 12.9182L-2.17211 30.0001Z" fill="white"/>
<path d="M-7.24146 29.7395V27.588L17.8155 10.9238L18.7919 12.4196L-7.24146 29.7395Z" fill="#CF142B"/>
<path d="M37.2413 9.94909H18.8097V0H11.1143V9.94909H-7.24146V19.8263H11.1143V30H18.8097V19.8263H37.2413V9.94909Z" fill="white"/>
<path d="M37.2413 11.9704H17.1779V0H12.7461V11.9704H-7.24146V17.8051H12.7461V30H17.1779V17.8051H37.2413V11.9704Z" fill="#CF142B"/>
</g>
</svg>
