<svg width="250" height="250" viewBox="0 0 250 250" fill="none" xmlns="http://www.w3.org/2000/svg">
<path d="M125 250C56.108 250 0 193.892 0 125C0 56.108 56.108 0 125 0H250V125C250 193.892 193.892 250 125 250ZM125 45.4545C81.108 45.4545 45.4545 81.108 45.4545 125C45.4545 168.892 81.108 204.545 125 204.545C168.892 204.545 204.545 168.892 204.545 125V45.4545H125Z" fill="#60CEAE"/>
<path d="M125 79.5454H170.455V125C170.455 150.142 150.142 170.454 125 170.454C99.858 170.454 79.5455 150.142 79.5455 125C79.5455 99.8579 99.858 79.5454 125 79.5454Z" fill="#60CEAE"/>
<path d="M204.545 79.6875H210.227C232.102 79.6875 249.858 98.5796 250 121.875V45.4546H204.545V79.6875Z" fill="url(#paint0_linear_29_183)"/>
<defs>
<linearGradient id="paint0_linear_29_183" x1="227.273" y1="21.3069" x2="227.273" y2="121.875" gradientUnits="userSpaceOnUse">
<stop offset="0.208333" stop-color="#1E9F80"/>
<stop offset="0.994792" stop-color="#60CEAE"/>
</linearGradient>
</defs>
</svg>
