<svg width="181" height="47" viewBox="0 0 181 47" fill="none" xmlns="http://www.w3.org/2000/svg">
<path d="M18.9078 21.779L28.6727 21.7163C33.0679 21.7163 35.2654 23.8026 35.2654 27.9748V44.434C29.9166 46.1446 24.2982 47 18.4102 47C15.4248 47 12.771 46.4992 10.449 45.498C8.16849 44.4967 6.24039 43.0573 4.66474 41.1798C3.13056 39.3022 1.96955 37.0076 1.18174 34.2955C0.393912 31.5419 0 28.4336 0 24.9707C0 21.1741 0.539037 17.8779 1.61711 15.0826C2.73666 12.2455 4.20864 9.88815 6.03308 8.01066C7.89898 6.13314 10.0344 4.73546 12.4393 3.81757C14.8443 2.85797 17.3529 2.37816 19.9651 2.37816C25.3556 2.37816 30.4142 3.88016 35.1411 6.88415C35.0996 7.5517 34.9338 8.24012 34.6436 8.9494C34.3947 9.61696 34.063 10.2845 33.6483 10.9521C33.2752 11.5779 32.819 12.162 32.2801 12.7044C31.7824 13.2051 31.2641 13.6431 30.7252 14.0186C27.2835 11.7656 23.8005 10.6392 20.2761 10.6392C13.5174 10.6392 10.138 15.3955 10.138 24.908C10.138 34.3791 13.6003 39.1146 20.5248 39.1146C21.4787 39.1146 22.3909 39.0729 23.2616 38.9894C24.1738 38.9058 25.0652 38.7807 25.9359 38.6138V34.4208C25.9359 33.4613 25.9359 32.6268 25.9359 31.9175C25.9774 31.2082 26.0188 30.6033 26.0603 30.1025H22.9506C21.1677 30.1025 19.9236 29.7688 19.2188 29.1012C18.5553 28.3919 18.2236 27.3072 18.2236 25.8469C18.2236 24.5953 18.4517 23.2391 18.9078 21.779Z" fill="#333333"/>
<path d="M54.5649 22.0293V46.0612C53.86 46.1865 53.093 46.2699 52.2637 46.3116C51.4344 46.3951 50.5843 46.4368 49.7135 46.4368C48.8428 46.4368 47.972 46.3951 47.1013 46.3116C46.272 46.2699 45.505 46.1865 44.8 46.0612V25.3461C44.8 22.9264 43.8256 21.7163 41.8768 21.7163H40.9438C40.695 20.9236 40.5707 19.8179 40.5707 18.3995C40.5707 17.0226 40.695 15.8544 40.9438 14.8948C42.022 14.8114 43.0171 14.7488 43.9293 14.7071C44.8415 14.6236 45.6708 14.5819 46.4172 14.5819H47.7856C49.9002 14.5819 51.5587 15.2494 52.7613 16.5846C53.9637 17.9197 54.5649 19.7345 54.5649 22.0293ZM43.6806 2.253C44.883 1.58544 46.4378 1.25166 48.3453 1.25166C50.2941 1.25166 51.8075 1.58544 52.8857 2.253C53.3831 3.37949 53.6321 4.58943 53.6321 5.88283C53.6321 7.17621 53.3831 8.38615 52.8857 9.51264C51.6831 10.1385 50.1074 10.4514 48.1587 10.4514C46.2099 10.4514 44.7171 10.1385 43.6806 9.51264C43.1829 8.38615 42.9342 7.17621 42.9342 5.88283C42.9342 4.58943 43.1829 3.37949 43.6806 2.253Z" fill="#333333"/>
<path d="M80.9343 14.7697C81.1832 15.9379 81.3075 17.1061 81.3075 18.2743C81.3075 19.4425 81.1832 20.5899 80.9343 21.7164L73.5329 21.5912V35.9854C73.5329 37.9462 74.4451 38.9268 76.2695 38.9268H79.7527C80.2916 40.4288 80.5612 41.8055 80.5612 43.0573C80.5612 44.3089 80.4783 45.206 80.3124 45.7484C77.244 46.1656 74.4245 46.3741 71.8537 46.3741C66.629 46.3741 64.0168 43.4744 64.0168 37.675V21.6539L59.1656 21.7164C58.8752 20.6733 58.7302 19.5468 58.7302 18.3369C58.7302 17.0852 58.8752 15.8961 59.1656 14.7697L64.0168 14.8948V11.265C64.0168 9.13715 64.4107 7.63515 65.1985 6.75899C66.0278 5.8411 67.3962 5.38216 69.3035 5.38216H73.0975L73.5329 5.82024V14.8948L80.9343 14.7697Z" fill="#333333"/>
<path d="M87.5894 36.5486C89.6211 37.8003 91.5907 38.426 93.498 38.426C95.4884 38.426 96.8566 37.8003 97.603 36.5486C98.3908 35.2553 98.7848 33.2735 98.7848 30.6033V3.3169C100.029 3.06657 101.667 2.94141 103.698 2.94141C105.73 2.94141 107.409 3.06657 108.736 3.3169V29.6644C108.736 32.3346 108.508 34.7338 108.052 36.8615C107.596 38.9475 106.808 40.7208 105.689 42.1811C104.569 43.6415 103.076 44.7679 101.211 45.5606C99.3859 46.3116 97.0847 46.6871 94.3067 46.6871C90.4504 46.6871 87.0711 45.7692 84.1685 43.9334C84.6247 41.0545 85.765 38.5931 87.5894 36.5486Z" fill="#333333"/>
<path d="M140.127 17.5859C143.113 20.5899 144.605 24.8873 144.605 30.4779C144.605 32.9813 144.274 35.2553 143.61 37.2996C142.988 39.3439 142.055 41.0964 140.811 42.5565C139.609 43.9752 138.116 45.0808 136.333 45.8736C134.55 46.6246 132.498 47 130.176 47C127.854 47 125.801 46.6036 124.018 45.8109C122.277 45.0182 120.784 43.9125 119.54 42.4941C118.338 41.0337 117.425 39.2814 116.803 37.2369C116.181 35.1926 115.87 32.9396 115.87 30.4779C115.87 27.9748 116.181 25.7217 116.803 23.7191C117.425 21.6746 118.338 19.9223 119.54 18.4621C120.742 17.0018 122.235 15.8753 124.018 15.0826C125.801 14.2898 127.854 13.8935 130.176 13.8935C134.281 13.8935 137.598 15.1243 140.127 17.5859ZM130.238 21.2158C129.326 21.2158 128.579 21.4451 127.999 21.9042C127.46 22.3213 127.024 22.9055 126.693 23.6565C126.361 24.4075 126.133 25.2837 126.009 26.2849C125.884 27.2445 125.822 28.2875 125.822 29.4142C125.822 31.1665 125.863 32.6893 125.946 33.9828C126.071 35.2343 126.278 36.2983 126.568 37.1745C126.9 38.0089 127.335 38.6348 127.874 39.0519C128.455 39.4692 129.201 39.6778 130.114 39.6778C131.938 39.6778 133.14 38.8851 133.721 37.2996C134.301 35.6724 134.592 33.3776 134.592 30.4155C134.592 27.4114 134.301 25.1376 133.721 23.5938C133.14 22.0083 131.979 21.2158 130.238 21.2158Z" fill="#333333"/>
<path d="M151.413 44.4967V0.438085L151.849 0H155.518C157.426 0 158.794 0.438083 159.623 1.31425C160.453 2.19042 160.867 3.71327 160.867 5.88283V16.3342C163.023 14.9157 165.428 14.2064 168.082 14.2064C171.731 14.2064 174.468 15.6875 176.292 18.6498C178.158 21.6122 179.091 25.5966 179.091 30.6033C179.091 32.9813 178.718 35.1509 177.971 37.1118C177.225 39.0729 176.188 40.7625 174.861 42.1811C173.535 43.5996 171.917 44.7052 170.01 45.498C168.103 46.249 166.009 46.6246 163.728 46.6246C159.001 46.6246 154.896 45.9153 151.413 44.4967ZM165.159 22.0293C163.542 22.0293 162.111 22.7176 160.867 24.0946V39.3649C161.282 39.4483 161.717 39.5109 162.173 39.5527C162.671 39.5944 163.189 39.6151 163.728 39.6151C167.336 39.6151 169.139 36.4651 169.139 30.1652C169.139 24.7829 167.812 22.071 165.159 22.0293Z" fill="#333333"/>
</svg>
