<svg width="19" height="10" viewBox="0 0 19 10" fill="none" xmlns="http://www.w3.org/2000/svg">
<path d="M17.6443 4.15332H0.846611C0.379041 4.15332 0 4.53236 0 4.99992C0 5.46749 0.379041 5.84653 0.846611 5.84653H17.6443C18.1119 5.84653 18.4909 5.46749 18.4909 4.99992C18.4909 4.53236 18.1119 4.15332 17.6443 4.15332Z" fill="white"/>
<path fill-rule="evenodd" clip-rule="evenodd" d="M12.9032 8.55578L16.459 4.99999L12.9032 1.44422C12.5739 1.11496 12.5739 0.576212 12.9032 0.246957L12.9032 0.246942C13.2325 -0.0823139 13.7712 -0.0823139 14.1005 0.246942L18.2435 4.38995C18.411 4.55747 18.4932 4.77919 18.4903 4.99999C18.4932 5.22079 18.411 5.44254 18.2435 5.61005L14.1005 9.75306C13.7712 10.0823 13.2325 10.0823 12.9032 9.75306L12.9032 9.75304C12.5739 9.42379 12.5739 8.88504 12.9032 8.55578Z" fill="white"/>
</svg>
