<svg width="14" height="15" viewBox="0 0 14 15" fill="none" xmlns="http://www.w3.org/2000/svg">
<path fill-rule="evenodd" clip-rule="evenodd" d="M2.59415 3.31982C2.59415 3.17974 3.14708 2.6706 3.26449 2.59184C3.7699 2.71111 3.9365 3.27313 4.60684 3.27313C4.78407 3.27313 5.09045 3.06047 5.26433 2.98621C5.49914 2.88607 5.76023 2.82531 5.98051 2.71392C6.23881 2.58509 6.28801 2.37243 6.33888 2.07932L6.48481 1.227C6.80013 1.15274 7.19931 1.15274 7.51519 1.227C7.73883 1.7007 7.56104 2.43488 8.02843 2.70548C8.23474 2.82475 8.51036 2.87594 8.74797 2.97271C9.12815 3.12742 9.15219 3.27257 9.57206 3.27257C9.90192 3.27257 10.423 2.6751 10.7355 2.59127C10.9798 2.7218 11.322 3.06947 11.45 3.31926C11.4752 3.54486 10.7797 4.02137 10.7797 4.63684L11.3376 6.07031C11.6038 6.54401 12.3267 6.36342 12.7924 6.59239C12.8651 6.91138 12.8651 7.317 12.7924 7.63768C11.2297 8.00674 11.5797 7.55892 11.0743 8.84555C10.8982 9.29506 10.7797 9.22249 10.7797 9.72825C10.7797 10.0343 11.3706 10.5609 11.45 10.9102C11.3991 10.989 10.8306 11.5915 10.7797 11.5915C10.3928 11.5915 9.98243 10.9102 9.52789 10.9102C9.25674 10.9102 8.99397 11.0953 8.7832 11.1983C8.53608 11.3209 8.2079 11.3755 8.00495 11.4993C7.51352 11.8036 7.76399 13.0003 7.38046 13.0003C6.26005 13.0003 6.53568 13.1533 6.3551 12.2239C6.19352 11.3817 6.11581 11.5409 5.28389 11.2219C4.98143 11.106 4.81818 10.9097 4.47266 10.9097C4.14951 10.9097 3.49986 11.591 3.30921 11.591C3.18062 11.591 3.00507 11.3508 2.91785 11.2624C2.83064 11.1741 2.5947 10.9952 2.5947 10.8647C2.5947 10.6278 3.26505 10.1046 3.26505 9.5921L2.67689 8.09731C2.37722 7.59323 1.20762 7.85427 1.20762 7.49984V6.72685C1.20762 6.33698 2.38505 6.59296 2.68472 6.09225C2.8038 5.89085 2.85412 5.57524 2.96705 5.3322C3.35841 4.48325 3.39475 4.59127 2.95252 3.90829C2.87816 3.79634 2.59415 3.44528 2.59415 3.31982ZM6.48481 0H7.33126C8.00495 0.0320674 8.56292 0.228973 8.74797 1.2C8.76698 1.29845 8.80053 1.5578 8.82233 1.627C8.88439 1.81547 9.43732 1.95555 9.43732 1.95555C9.68444 1.95555 10.4688 0.905202 11.4769 1.609L12.434 2.59127C12.6973 3.01659 12.7191 3.46722 12.4961 3.92629C12.401 4.12095 12.3216 4.20984 12.2109 4.36455C12.1936 4.38874 12.0684 4.57889 12.065 4.60309C12.0572 4.65316 12.0952 4.74486 12.1394 4.84444C12.4245 5.50829 12.2137 5.14429 13.0775 5.39183C13.5829 5.53698 14 6.06694 14 6.63684V7.60786C13.9748 7.88353 13.9033 8.13107 13.7193 8.35216C13.2011 8.97045 12.7018 8.79492 12.3831 8.94794C12.2674 9.00251 12.3356 8.92038 12.2534 9.08803L12.0762 9.5921C12.0762 9.97241 13.4437 10.634 11.9761 12.126C11.095 13.0216 10.6114 13.0278 9.67158 12.3533C9.42279 12.1761 9.43844 12.2261 9.14884 12.3454C8.85588 12.4647 8.84134 12.3938 8.79046 12.7527C8.71778 13.2635 8.62106 13.5499 8.33257 13.8334C8.05974 14.099 7.71926 14.2278 7.20099 14.2278C6.85715 14.2278 6.45294 14.2441 6.14376 14.1198C5.99952 14.0635 5.76359 13.928 5.66854 13.8318C5.37055 13.5274 5.29619 13.1325 5.23581 12.7252C5.18326 12.3775 5.15642 12.4607 4.85564 12.3387C4.5705 12.2194 4.57833 12.1873 4.34352 12.3707C3.32766 13.1696 2.7574 12.8264 2.04569 12.1035C1.31329 11.3592 1.08853 10.7859 1.84945 9.78732C2.02053 9.56341 1.94617 9.51334 1.84777 9.26074C1.61463 8.65821 1.66104 9.09028 0.820734 8.75666C0.674813 8.69872 0.467393 8.54907 0.375145 8.43768C0.129707 8.14232 0 7.79914 0 7.27368C0 6.1412 0.180584 5.48072 1.41224 5.30069C1.83994 5.23768 1.69123 5.28325 1.84945 4.92545C1.97468 4.64359 2.01717 4.64865 1.84442 4.40055C1.1819 3.44359 1.18693 2.95414 2.06805 2.05682C2.60533 1.51223 3.22815 1.07735 4.01757 1.59943C4.12044 1.66694 4.47714 1.95555 4.56268 1.95555C4.67226 1.95555 4.8288 1.87848 4.93335 1.83291C5.29452 1.67988 5.17264 1.73614 5.28054 1.18537C5.40745 0.541209 5.88938 0 6.48481 0Z" fill="#4ECEA9"/>
<path fill-rule="evenodd" clip-rule="evenodd" d="M7.02142 8.72854C5.24801 8.72854 4.8505 6.27567 6.33655 5.62307C8.16083 4.82082 9.45847 7.32377 7.96236 8.41125C7.7555 8.56258 7.37365 8.72854 7.02142 8.72854ZM9.79503 7.18368V6.95471C9.79503 5.58256 8.50635 4.27286 7.15616 4.27286C6.05924 4.27286 5.49065 4.59635 4.8628 5.30689C3.91963 6.37637 4.06891 8.1142 5.04171 9.10323C5.72938 9.80252 6.96104 10.229 8.11164 9.69901C8.36658 9.58143 8.5617 9.48466 8.75514 9.30745C9.36566 8.74767 9.79503 8.17271 9.79503 7.18368Z" fill="#4ECEA9"/>
</svg>
