<svg width="28" height="14" viewBox="0 0 28 14" fill="none" xmlns="http://www.w3.org/2000/svg">
<path fill-rule="evenodd" clip-rule="evenodd" d="M0 6.41424C0 8.10381 0.271184 9.25609 1.16962 10.604L1.87197 11.4876C2.24463 11.8645 2.69467 12.2299 3.14874 12.5077C5.5252 13.9616 8.16254 13.6969 10.5177 12.3382C10.9148 12.1091 11.6606 11.4652 12.0447 11.1309C12.3364 10.877 13.2538 9.75918 13.5313 9.39087C13.8519 8.96543 14.1518 8.54066 14.4373 8.10935C15.717 6.17584 17.477 3.32675 19.6938 2.59239C20.8905 2.1959 22.0962 2.12022 23.2614 2.67632C23.8014 2.93408 24.1171 3.21917 24.5139 3.61126C25.7336 4.81632 26.0375 6.76843 25.4219 8.42993C25.2585 8.87102 24.9561 9.40945 24.6511 9.73725C23.8368 10.6125 22.7609 11.2113 21.4922 11.2108C19.9463 11.2101 18.5782 10.5304 17.5136 9.4631C16.855 8.80272 16.901 8.60175 16.0234 8.60175C15.5209 8.60175 14.6736 9.43113 15.2583 10.3513C15.3576 10.5076 15.4751 10.5779 15.5941 10.7264C15.915 11.1274 16.3716 11.5081 16.7815 11.8359C18.9862 13.5989 22.3781 14.1072 24.7841 12.55C25.6292 12.003 25.8274 11.8182 26.4811 11.075C27.3101 10.1323 28 8.37221 28 7.0705C28 5.38093 27.7288 4.22865 26.8304 2.88076C26.7237 2.72077 26.6278 2.58097 26.5068 2.43874C25.9328 1.76409 26.0131 1.87064 25.308 1.28595C24.49 0.607628 22.9209 0.0158134 21.8203 0.0158134C19.9098 0.0158134 18.7044 0.315208 17.161 1.37212L16.2569 2.10859C16.1288 2.23295 16.0826 2.24306 15.9552 2.35387C15.7467 2.53535 15.6441 2.72387 15.4357 2.92805C14.3601 3.98157 12.5373 7.02762 11.3375 8.50956C11.1634 8.72454 11.0349 8.91705 10.8426 9.10841C10.4402 9.50877 10.1601 9.80133 9.69584 10.1491C9.29809 10.4471 8.8013 10.7284 8.30625 10.8924C7.82292 11.0525 7.08482 11.2421 6.46516 11.209C1.87963 10.964 0.78253 4.95596 4.48612 2.80661C5.94118 1.96217 7.96293 2.20441 9.34148 3.08839C11.0605 4.1907 10.7047 4.88299 11.9766 4.88299C12.3158 4.88299 12.7024 4.51512 12.8267 4.25652C13.2087 3.46145 12.5961 2.99589 12.4059 2.7583C11.968 2.21132 12.0155 2.37782 11.6356 1.9974C11.5019 1.86357 11.366 1.76688 11.2185 1.64888C10.6869 1.22376 10.0127 0.815278 9.32088 0.538669C6.6731 -0.520101 3.85648 -0.00993695 1.87197 1.99716C0.838313 3.04258 0 4.9132 0 6.41424Z" fill="#60CEAE"/>
</svg>
