<svg width="34" height="34" viewBox="0 0 34 34" fill="none" xmlns="http://www.w3.org/2000/svg">
<path d="M0 34L2.37826 25.5525C0.849227 22.9536 0.0436867 19.9968 0.0436867 16.96C0.0436867 7.60789 7.65157 0 17.0037 0C26.3559 0 33.9638 7.60789 33.9638 16.96C33.9638 26.3122 26.3559 33.9201 17.0037 33.9201C14.0895 33.9201 11.2371 33.1742 8.71284 31.7581L0 34ZM9.15717 28.6723L9.67608 28.9888C11.8764 30.3324 14.4102 31.0421 17.0027 31.0421C24.7682 31.0421 31.0858 24.7246 31.0858 16.959C31.0858 9.19339 24.7682 2.87693 17.0037 2.87693C9.23921 2.87693 2.92062 9.19446 2.92062 16.96C2.92062 19.6654 3.68993 22.293 5.14438 24.5583L5.49387 25.1028L4.1236 29.967L9.15717 28.6723Z" fill="#333333"/>
<path d="M12.2385 9.06654L11.1378 9.00687C10.7926 8.98769 10.4527 9.10383 10.1916 9.33079C9.6578 9.7943 8.80537 10.6893 8.54325 11.8572C8.1522 13.5972 8.75636 15.7282 10.3195 17.8593C11.8826 19.9904 14.7947 23.4001 19.9444 24.8566C21.6045 25.3255 22.9098 25.009 23.9167 24.3654C24.7148 23.855 25.2646 23.0356 25.4628 22.1097L25.6386 21.2892C25.694 21.0282 25.5619 20.7639 25.32 20.6521L21.6013 18.9376C21.3594 18.8268 21.0739 18.8971 20.9109 19.107L19.4511 20.9994C19.3403 21.1422 19.1517 21.1987 18.9812 21.139C17.9817 20.7874 14.6317 19.3851 12.7937 15.8444C12.7137 15.6909 12.734 15.5045 12.8469 15.3734L14.2428 13.7591C14.3856 13.594 14.4218 13.3628 14.3355 13.1624L12.7319 9.41177C12.6466 9.21145 12.4559 9.07826 12.2385 9.06654Z" fill="#333333"/>
</svg>
