<svg width="24" height="31" viewBox="0 0 24 31" fill="none" xmlns="http://www.w3.org/2000/svg">
<path fill-rule="evenodd" clip-rule="evenodd" d="M2.11764 26.1007C2.2696 25.5316 3.8884 25.0304 4.42755 24.8812C5.06138 24.7059 6.72112 24.3039 7.37967 24.3039C7.61379 24.3039 8.192 25.0427 8.39086 25.2179L11.5508 28.0258C9.57046 28.0258 6.89829 27.7954 5.16231 27.3555C4.76741 27.2554 4.41547 27.1711 4.05029 27.0557C3.53326 26.8925 2.38531 26.466 2.11764 26.1007ZM12.4492 28.0258L16.5562 24.3039C17.0589 24.3039 17.6032 24.4288 18.0696 24.523C18.711 24.6527 21.6868 25.3042 21.8823 26.0365C21.373 26.7972 18.6801 27.3916 17.7172 27.5826C16.1629 27.8911 14.3173 28.0258 12.4492 28.0258ZM12 25.6515C11.7248 25.4672 11.4928 25.2295 11.2473 24.9925C11.0891 24.8397 11.0162 24.8181 10.8601 24.6737C10.7173 24.5416 10.6153 24.428 10.476 24.2878L8.99999 22.8761C8.01078 21.8869 7.13106 20.8823 6.2103 19.8262C5.46487 18.9713 4.34251 17.4788 3.75826 16.5029C3.39021 15.8881 3.02952 15.305 2.7501 14.6233C2.1678 13.2027 2.11764 13.009 2.11764 11.5339C2.11764 9.67095 2.89809 7.70752 3.91367 6.27108C4.61719 5.27605 5.54436 4.32914 6.58844 3.68379C8.57026 2.45883 9.94506 2.1007 12.4492 2.1007C13.7721 2.1007 15.3119 2.56776 16.2147 3.01971L17.712 3.89674C18.1654 4.21732 18.6136 4.57503 19.0108 4.97223C20.656 6.6174 21.8823 9.18897 21.8823 11.5339C21.8823 13.6511 21.2951 14.7563 20.2902 16.423C19.4762 17.7729 18.5074 18.9799 17.4997 20.178C17.3725 20.3292 17.2896 20.3784 17.1608 20.5449C16.6012 21.2683 15.0061 22.8626 14.3265 23.5502C14.0609 23.8188 13.8304 23.9806 13.5561 24.2558C13.4236 24.3887 13.337 24.4788 13.2045 24.61L12 25.6515ZM0 11.8547C0 13.7089 0.650177 15.1426 1.41092 16.6042C2.17585 18.0738 3.88103 20.3784 4.99033 21.6237C5.09308 21.7391 5.13127 21.7592 5.23489 21.8926C5.41121 22.1195 5.57759 22.2434 5.71122 22.443C4.24987 22.5646 0 23.725 0 25.9724C0 29.7074 9.28149 30.1435 12.1283 30.1435C14.9604 30.1435 24 29.6469 24 25.9724C24 24.7461 22.8016 23.9601 21.8617 23.4903C21.3531 23.236 20.7609 23.0446 20.1728 22.8691C19.7621 22.7466 18.7065 22.4523 18.2888 22.443L20.135 20.2464C20.4383 19.8773 20.7116 19.5003 20.9939 19.116C21.292 18.7101 21.5618 18.3232 21.8212 17.8898C22.9521 16.0007 24 14.2479 24 11.8547C24 9.96121 23.505 8.37135 22.9276 7.02331C22.7742 6.66492 22.6219 6.37776 22.4237 6.05127C21.5604 4.6289 21.669 4.95977 20.8556 3.89747C20.7274 3.72995 20.6432 3.65325 20.487 3.49607C20.3292 3.33738 20.2959 3.30628 20.1126 3.16453L18.8763 2.15487C18.5818 1.93743 18.2854 1.77292 17.9716 1.58364C14.1557 -0.717566 8.7631 -0.489116 5.1602 2.12724C4.85195 2.35108 4.6251 2.53531 4.32626 2.76922C3.25205 3.61 2.29721 4.85629 1.60058 6.01144C0.677854 7.5415 0 9.75881 0 11.8547Z" fill="#60CEAE"/>
<path fill-rule="evenodd" clip-rule="evenodd" d="M8.91981 11.9823C8.91981 8.84729 13.3289 7.64023 14.7783 10.68C15.937 13.1103 13.4791 15.9567 10.7521 14.7703C9.65176 14.2916 8.91981 13.1282 8.91981 11.9823ZM6.86633 11.7256C6.86633 13.4144 7.30472 14.571 8.35805 15.6243C10.3585 17.6247 13.6416 17.6247 15.642 15.6243C18.9516 12.3147 16.3467 6.84863 12.2567 6.84863C10.5608 6.84863 9.41756 7.28084 8.35805 8.34035C7.64313 9.05524 6.86633 10.3289 6.86633 11.7256Z" fill="#60CEAE"/>
</svg>
