<svg width="25" height="17" viewBox="0 0 25 17" fill="none" xmlns="http://www.w3.org/2000/svg">
<path fill-rule="evenodd" clip-rule="evenodd" d="M21.64 0.52C22.68 0.8 23.5 1.62 23.78 2.66C24.3 4.56 24.28 8.52 24.28 8.52C24.28 8.52 24.28 12.46 23.78 14.36C23.5 15.4 22.68 16.22 21.64 16.5C19.74 17 12.14 17 12.14 17C12.14 17 4.56 17 2.64 16.48C1.6 16.2 0.78 15.38 0.5 14.34C0 12.46 0 8.5 0 8.5C0 8.5 0 4.56 0.5 2.66C0.78 1.62 1.62 0.78 2.64 0.5C4.54 0 12.14 0 12.14 0C12.14 0 19.74 0 21.64 0.52ZM9.71973 4.85938L16.0397 8.49938L9.71973 12.1394V4.85938Z" fill="white"/>
</svg>
