<svg width="12" height="10" viewBox="0 0 12 10" fill="none" xmlns="http://www.w3.org/2000/svg">
<path fill-rule="evenodd" clip-rule="evenodd" d="M0.784012 0C1.21752 0 1.56802 0.354189 1.56802 0.791391C1.56802 1.23044 1.21752 1.58278 0.784012 1.58278C0.3505 1.58278 0 1.23044 0 0.791391C0 0.354189 0.3505 0 0.784012 0ZM0.784012 8.10207C1.21752 8.10207 1.56802 8.45626 1.56802 8.89347C1.56802 9.33251 1.21752 9.68486 0.784012 9.68486C0.3505 9.68486 0 9.33251 0 8.89531C0 8.45626 0.3505 8.10207 0.784012 8.10207ZM3.69685 8.10207H11.216C11.6495 8.10207 12 8.4618 12 8.89347C12 9.33251 11.6495 9.68486 11.216 9.68486H3.69685C3.26334 9.68486 2.91284 9.33067 2.91284 8.89347C2.91284 8.4618 3.26334 8.10207 3.69685 8.10207ZM0.784012 4.05473C1.21752 4.05473 1.56802 4.40892 1.56802 4.84612C1.56802 5.27963 1.21752 5.63751 0.784012 5.63751C0.3505 5.63751 0 5.27963 0 4.84612C0 4.40707 0.3505 4.05473 0.784012 4.05473ZM3.69685 4.05473H11.216C11.6495 4.05473 12 4.40892 12 4.84612C12 5.27963 11.6495 5.63751 11.216 5.63751H3.69685C3.26334 5.63751 2.91284 5.27779 2.91284 4.84612C2.91284 4.40707 3.26334 4.05473 3.69685 4.05473ZM3.69685 0H11.216C11.6495 0 12 0.359723 12 0.791391C12 1.23044 11.6495 1.58278 11.216 1.58278H3.69685C3.26334 1.58278 2.91284 1.22859 2.91284 0.791391C2.91284 0.359723 3.26334 0 3.69685 0Z" fill="#BBC2CB"/>
</svg>
