<svg width="12" height="15" viewBox="0 0 12 15" fill="none" xmlns="http://www.w3.org/2000/svg">
<path fill-rule="evenodd" clip-rule="evenodd" d="M0 11.2191C0 11.9766 0.108838 12.3129 0.75768 12.8478C1.51994 13.4761 2.70682 13.8084 3.70147 13.9949C5.11197 14.2593 6.85788 14.2539 8.26973 14.0002C8.86763 13.8927 9.38958 13.7557 9.89072 13.5757C10.7057 13.283 12 12.5735 12 11.56C12 10.2508 11.6705 9.02091 10.9039 7.98561C10.8373 7.89556 10.8044 7.83868 10.731 7.74951C10.4552 7.41477 10.2049 7.02591 9.81818 7.02591C9.51261 7.02591 9.27273 7.2725 9.27273 7.57136C9.27273 7.83746 9.40032 7.91875 9.53757 8.05652C10.1548 8.67606 10.6346 9.64636 10.8103 10.5338C11.0233 11.6105 10.9214 11.9422 9.84283 12.4028C9.03394 12.7483 7.62723 13.0686 6.75035 13.0604C6.45364 13.0576 6.29796 13.0941 6 13.0941L4.61631 13.0119L3.33806 12.7901C2.98871 12.718 2.52671 12.5677 2.20425 12.4239C1.76707 12.229 1.06127 11.8994 1.08914 11.3228L1.16834 10.6488C1.52965 8.59651 2.69319 8.05579 2.69319 7.67364C2.69319 6.99889 2.09445 6.85397 1.66093 7.2891C0.743273 8.21015 0 9.82696 0 11.2191Z" fill="#CAD3DC"/>
<path fill-rule="evenodd" clip-rule="evenodd" d="M3.27353 3.82161C3.27353 1.49312 6.15649 0.141961 7.91847 1.90394C8.99259 2.97806 8.97619 4.68763 7.93555 5.72226C6.56911 7.0808 4.37553 6.69676 3.53429 4.95857C3.38292 4.64578 3.27353 4.17572 3.27353 3.82161ZM2.18262 3.65117C2.18262 4.83116 2.48599 5.71023 3.29909 6.52332C3.60637 6.8306 3.93558 7.07644 4.35261 7.27662C6.25358 8.18916 8.5502 7.35653 9.4558 5.46981C10.3551 3.59636 9.57172 1.28961 7.64899 0.366609C6.66589 -0.105328 5.35117 -0.134864 4.37536 0.355269C3.91266 0.587662 3.6458 0.773651 3.29909 1.11991C2.96737 1.45118 2.76914 1.73088 2.54597 2.17361C2.36728 2.52812 2.18262 3.13387 2.18262 3.65117Z" fill="#CAD3DC"/>
</svg>
