<svg width="20" height="12" viewBox="0 0 20 12" fill="none" xmlns="http://www.w3.org/2000/svg">
<path d="M16.5958 6.69C16.2725 6.28167 16.365 6.1 16.5958 5.735C16.6 5.73084 19.2692 2.0425 19.5442 0.791667L19.5458 0.790834C19.6825 0.335 19.5458 0 18.885 0H16.6983C16.1417 0 15.885 0.2875 15.7475 0.609167C15.7475 0.609167 14.6342 3.27417 13.0592 5.00167C12.5508 5.50084 12.3158 5.66084 12.0383 5.66084C11.9017 5.66084 11.6892 5.50084 11.6892 5.045V0.790834C11.6892 0.244167 11.5333 0 11.0725 0H7.63416C7.285 0 7.0775 0.255 7.0775 0.4925C7.0775 1.01083 7.865 1.13 7.94666 2.58834V5.7525C7.94666 6.44584 7.82083 6.57334 7.54166 6.57334C6.79833 6.57334 4.99416 3.8975 3.925 0.835001C3.70917 0.240833 3.49833 0.000833274 2.9375 0.000833274H0.75C0.125833 0.000833274 0 0.288333 0 0.61C0 1.17833 0.743333 4.00417 3.45667 7.73751C5.265 10.2858 7.81166 11.6667 10.1283 11.6667C11.5208 11.6667 11.6908 11.36 11.6908 10.8325C11.6908 8.39751 11.565 8.16751 12.2625 8.16751C12.5858 8.16751 13.1425 8.32751 14.4425 9.55667C15.9283 11.0142 16.1725 11.6667 17.0042 11.6667H19.1908C19.8142 11.6667 20.13 11.36 19.9483 10.755C19.5325 9.48251 16.7225 6.86501 16.5958 6.69Z" fill="white"/>
</svg>
