<svg width="26" height="15" viewBox="0 0 26 15" fill="none" xmlns="http://www.w3.org/2000/svg">
<path d="M24.8096 5.84009H1.19042C0.532967 5.84009 0 6.37305 0 7.03049C0 7.68794 0.532967 8.2209 1.19042 8.2209H24.8096C25.467 8.2209 26 7.68794 26 7.03049C26 6.37305 25.467 5.84009 24.8096 5.84009Z" fill="#333333"/>
<path fill-rule="evenodd" clip-rule="evenodd" d="M18.1439 12.0302L23.1436 7.03046L18.1439 2.0307C17.6809 1.56774 17.6809 0.810209 18.1439 0.347244L18.1439 0.347223C18.6068 -0.115741 19.3644 -0.115741 19.8273 0.347223L25.6528 6.17268C25.8883 6.40822 26.004 6.72 25.9998 7.03046C26.004 7.34092 25.8883 7.65272 25.6528 7.88826L19.8273 13.7137C19.3644 14.1767 18.6068 14.1767 18.1439 13.7137L18.1439 13.7137C17.6809 13.2507 17.6809 12.4932 18.1439 12.0302Z" fill="#333333"/>
</svg>
