<?xml version="1.0" encoding="UTF-8"?><!DOCTYPE svg PUBLIC "-//W3C//DTD SVG 1.1//EN" "http://www.w3.org/Graphics/SVG/1.1/DTD/svg11.dtd"><svg xmlns="http://www.w3.org/2000/svg" xmlns:xlink="http://www.w3.org/1999/xlink"><symbol id="icon-arrow" viewBox="0 0 26 15">
<path d="M24.8096 5.84009H1.19042C0.532967 5.84009 0 6.37305 0 7.03049C0 7.68794 0.532967 8.2209 1.19042 8.2209H24.8096C25.467 8.2209 26 7.68794 26 7.03049C26 6.37305 25.467 5.84009 24.8096 5.84009Z"/>
<path fill-rule="evenodd" clip-rule="evenodd" d="M18.1439 12.0302L23.1436 7.03046L18.1439 2.0307C17.6809 1.56774 17.6809 0.810209 18.1439 0.347244L18.1439 0.347223C18.6068 -0.115741 19.3644 -0.115741 19.8273 0.347223L25.6528 6.17268C25.8883 6.40822 26.004 6.72 25.9998 7.03046C26.004 7.34092 25.8883 7.65272 25.6528 7.88826L19.8273 13.7137C19.3644 14.1767 18.6068 14.1767 18.1439 13.7137L18.1439 13.7137C17.6809 13.2507 17.6809 12.4932 18.1439 12.0302Z"/>
</symbol><symbol id="icon-close" viewBox="0 0 32 32">
<rect x="7.07129" y="23.0713" width="22" height="2" rx="1" transform="rotate(-45 7.07129 23.0713)"/>
<rect x="22.6274" y="24.4855" width="22" height="2" rx="1" transform="rotate(-135 22.6274 24.4855)"/>
</symbol><symbol id="icon-facebook" viewBox="0 0 12 22">
<path d="M7.41577 21.9999V11.9646H10.7842L11.2885 8.05373H7.41577V5.55673C7.41577 4.42446 7.73024 3.65275 9.35407 3.65275L11.4251 3.65179V0.153937C11.0667 0.106449 9.83745 0 8.40728 0C5.42138 0 3.37717 1.8225 3.37717 5.1696V8.05383H0V11.9647H3.37706V22L7.41577 21.9999Z"/>
</symbol><symbol id="icon-gear" viewBox="0 0 14 15">
<path fill-rule="evenodd" clip-rule="evenodd" d="M2.59415 3.31982C2.59415 3.17974 3.14708 2.6706 3.26449 2.59184C3.7699 2.71111 3.9365 3.27313 4.60684 3.27313C4.78407 3.27313 5.09045 3.06047 5.26433 2.98621C5.49914 2.88607 5.76023 2.82531 5.98051 2.71392C6.23881 2.58509 6.28801 2.37243 6.33888 2.07932L6.48481 1.227C6.80013 1.15274 7.19931 1.15274 7.51519 1.227C7.73883 1.7007 7.56104 2.43488 8.02843 2.70548C8.23474 2.82475 8.51036 2.87594 8.74797 2.97271C9.12815 3.12742 9.15219 3.27257 9.57206 3.27257C9.90192 3.27257 10.423 2.6751 10.7355 2.59127C10.9798 2.7218 11.322 3.06947 11.45 3.31926C11.4752 3.54486 10.7797 4.02137 10.7797 4.63684L11.3376 6.07031C11.6038 6.54401 12.3267 6.36342 12.7924 6.59239C12.8651 6.91138 12.8651 7.317 12.7924 7.63768C11.2297 8.00674 11.5797 7.55892 11.0743 8.84555C10.8982 9.29506 10.7797 9.22249 10.7797 9.72825C10.7797 10.0343 11.3706 10.5609 11.45 10.9102C11.3991 10.989 10.8306 11.5915 10.7797 11.5915C10.3928 11.5915 9.98243 10.9102 9.52789 10.9102C9.25674 10.9102 8.99397 11.0953 8.7832 11.1983C8.53608 11.3209 8.2079 11.3755 8.00495 11.4993C7.51352 11.8036 7.76399 13.0003 7.38046 13.0003C6.26005 13.0003 6.53568 13.1533 6.3551 12.2239C6.19352 11.3817 6.11581 11.5409 5.28389 11.2219C4.98143 11.106 4.81818 10.9097 4.47266 10.9097C4.14951 10.9097 3.49986 11.591 3.30921 11.591C3.18062 11.591 3.00507 11.3508 2.91785 11.2624C2.83064 11.1741 2.5947 10.9952 2.5947 10.8647C2.5947 10.6278 3.26505 10.1046 3.26505 9.5921L2.67689 8.09731C2.37722 7.59323 1.20762 7.85427 1.20762 7.49984V6.72685C1.20762 6.33698 2.38505 6.59296 2.68472 6.09225C2.8038 5.89085 2.85412 5.57524 2.96705 5.3322C3.35841 4.48325 3.39475 4.59127 2.95252 3.90829C2.87816 3.79634 2.59415 3.44528 2.59415 3.31982ZM6.48481 0H7.33126C8.00495 0.0320674 8.56292 0.228973 8.74797 1.2C8.76698 1.29845 8.80053 1.5578 8.82233 1.627C8.88439 1.81547 9.43732 1.95555 9.43732 1.95555C9.68444 1.95555 10.4688 0.905202 11.4769 1.609L12.434 2.59127C12.6973 3.01659 12.7191 3.46722 12.4961 3.92629C12.401 4.12095 12.3216 4.20984 12.2109 4.36455C12.1936 4.38874 12.0684 4.57889 12.065 4.60309C12.0572 4.65316 12.0952 4.74486 12.1394 4.84444C12.4245 5.50829 12.2137 5.14429 13.0775 5.39183C13.5829 5.53698 14 6.06694 14 6.63684V7.60786C13.9748 7.88353 13.9033 8.13107 13.7193 8.35216C13.2011 8.97045 12.7018 8.79492 12.3831 8.94794C12.2674 9.00251 12.3356 8.92038 12.2534 9.08803L12.0762 9.5921C12.0762 9.97241 13.4437 10.634 11.9761 12.126C11.095 13.0216 10.6114 13.0278 9.67158 12.3533C9.42279 12.1761 9.43844 12.2261 9.14884 12.3454C8.85588 12.4647 8.84134 12.3938 8.79046 12.7527C8.71778 13.2635 8.62106 13.5499 8.33257 13.8334C8.05974 14.099 7.71926 14.2278 7.20099 14.2278C6.85715 14.2278 6.45294 14.2441 6.14376 14.1198C5.99952 14.0635 5.76359 13.928 5.66854 13.8318C5.37055 13.5274 5.29619 13.1325 5.23581 12.7252C5.18326 12.3775 5.15642 12.4607 4.85564 12.3387C4.5705 12.2194 4.57833 12.1873 4.34352 12.3707C3.32766 13.1696 2.7574 12.8264 2.04569 12.1035C1.31329 11.3592 1.08853 10.7859 1.84945 9.78732C2.02053 9.56341 1.94617 9.51334 1.84777 9.26074C1.61463 8.65821 1.66104 9.09028 0.820734 8.75666C0.674813 8.69872 0.467393 8.54907 0.375145 8.43768C0.129707 8.14232 0 7.79914 0 7.27368C0 6.1412 0.180584 5.48072 1.41224 5.30069C1.83994 5.23768 1.69123 5.28325 1.84945 4.92545C1.97468 4.64359 2.01717 4.64865 1.84442 4.40055C1.1819 3.44359 1.18693 2.95414 2.06805 2.05682C2.60533 1.51223 3.22815 1.07735 4.01757 1.59943C4.12044 1.66694 4.47714 1.95555 4.56268 1.95555C4.67226 1.95555 4.8288 1.87848 4.93335 1.83291C5.29452 1.67988 5.17264 1.73614 5.28054 1.18537C5.40745 0.541209 5.88938 0 6.48481 0Z"/>
<path fill-rule="evenodd" clip-rule="evenodd" d="M7.02142 8.72854C5.24801 8.72854 4.8505 6.27567 6.33655 5.62307C8.16083 4.82082 9.45847 7.32377 7.96236 8.41125C7.7555 8.56258 7.37365 8.72854 7.02142 8.72854ZM9.79503 7.18368V6.95471C9.79503 5.58256 8.50635 4.27286 7.15616 4.27286C6.05924 4.27286 5.49065 4.59635 4.8628 5.30689C3.91963 6.37637 4.06891 8.1142 5.04171 9.10323C5.72938 9.80252 6.96104 10.229 8.11164 9.69901C8.36658 9.58143 8.5617 9.48466 8.75514 9.30745C9.36566 8.74767 9.79503 8.17271 9.79503 7.18368Z"/>
</symbol><symbol id="icon-infinite" viewBox="0 0 28 14">
<path fill-rule="evenodd" clip-rule="evenodd" d="M0 6.41424C0 8.10381 0.271184 9.25609 1.16962 10.604L1.87197 11.4876C2.24463 11.8645 2.69467 12.2299 3.14874 12.5077C5.5252 13.9616 8.16254 13.6969 10.5177 12.3382C10.9148 12.1091 11.6606 11.4652 12.0447 11.1309C12.3364 10.877 13.2538 9.75918 13.5313 9.39087C13.8519 8.96543 14.1518 8.54066 14.4373 8.10935C15.717 6.17584 17.477 3.32675 19.6938 2.59239C20.8905 2.1959 22.0962 2.12022 23.2614 2.67632C23.8014 2.93408 24.1171 3.21917 24.5139 3.61126C25.7336 4.81632 26.0375 6.76843 25.4219 8.42993C25.2585 8.87102 24.9561 9.40945 24.6511 9.73725C23.8368 10.6125 22.7609 11.2113 21.4922 11.2108C19.9463 11.2101 18.5782 10.5304 17.5136 9.4631C16.855 8.80272 16.901 8.60175 16.0234 8.60175C15.5209 8.60175 14.6736 9.43113 15.2583 10.3513C15.3576 10.5076 15.4751 10.5779 15.5941 10.7264C15.915 11.1274 16.3716 11.5081 16.7815 11.8359C18.9862 13.5989 22.3781 14.1072 24.7841 12.55C25.6292 12.003 25.8274 11.8182 26.4811 11.075C27.3101 10.1323 28 8.37221 28 7.0705C28 5.38093 27.7288 4.22865 26.8304 2.88076C26.7237 2.72077 26.6278 2.58097 26.5068 2.43874C25.9328 1.76409 26.0131 1.87064 25.308 1.28595C24.49 0.607628 22.9209 0.0158134 21.8203 0.0158134C19.9098 0.0158134 18.7044 0.315208 17.161 1.37212L16.2569 2.10859C16.1288 2.23295 16.0826 2.24306 15.9552 2.35387C15.7467 2.53535 15.6441 2.72387 15.4357 2.92805C14.3601 3.98157 12.5373 7.02762 11.3375 8.50956C11.1634 8.72454 11.0349 8.91705 10.8426 9.10841C10.4402 9.50877 10.1601 9.80133 9.69584 10.1491C9.29809 10.4471 8.8013 10.7284 8.30625 10.8924C7.82292 11.0525 7.08482 11.2421 6.46516 11.209C1.87963 10.964 0.78253 4.95596 4.48612 2.80661C5.94118 1.96217 7.96293 2.20441 9.34148 3.08839C11.0605 4.1907 10.7047 4.88299 11.9766 4.88299C12.3158 4.88299 12.7024 4.51512 12.8267 4.25652C13.2087 3.46145 12.5961 2.99589 12.4059 2.7583C11.968 2.21132 12.0155 2.37782 11.6356 1.9974C11.5019 1.86357 11.366 1.76688 11.2185 1.64888C10.6869 1.22376 10.0127 0.815278 9.32088 0.538669C6.6731 -0.520101 3.85648 -0.00993695 1.87197 1.99716C0.838313 3.04258 0 4.9132 0 6.41424Z"/>
</symbol><symbol id="icon-instagram" viewBox="0 0 20 20">
<path d="M13.2 10C13.2 10.6329 13.0123 11.2516 12.6607 11.7778C12.3091 12.3041 11.8093 12.7142 11.2246 12.9564C10.6399 13.1986 9.99645 13.262 9.37571 13.1385C8.75497 13.015 8.18479 12.7103 7.73726 12.2627C7.28973 11.8152 6.98496 11.245 6.86149 10.6243C6.73801 10.0035 6.80138 9.36014 7.04359 8.77541C7.28579 8.19069 7.69594 7.69092 8.22218 7.3393C8.74841 6.98768 9.3671 6.8 10 6.8C10.8484 6.80097 11.6618 7.13842 12.2617 7.73833C12.8616 8.33824 13.199 9.15161 13.2 10ZM20 5.6V14.4C19.9983 15.8847 19.4078 17.3081 18.3579 18.3579C17.3081 19.4078 15.8847 19.9983 14.4 20H5.6C4.1153 19.9983 2.6919 19.4078 1.64206 18.3579C0.59222 17.3081 0.00168148 15.8847 0 14.4V5.6C0.00168148 4.1153 0.59222 2.6919 1.64206 1.64206C2.6919 0.59222 4.1153 0.00168148 5.6 0H14.4C15.8847 0.00168148 17.3081 0.59222 18.3579 1.64206C19.4078 2.6919 19.9983 4.1153 20 5.6ZM14.8 10C14.8 9.05065 14.5185 8.12262 13.9911 7.33326C13.4636 6.54391 12.714 5.92868 11.8369 5.56538C10.9598 5.20208 9.99468 5.10702 9.06357 5.29223C8.13246 5.47744 7.27718 5.9346 6.60589 6.60589C5.9346 7.27718 5.47744 8.13246 5.29223 9.06357C5.10702 9.99468 5.20208 10.9598 5.56538 11.8369C5.92868 12.714 6.54391 13.4636 7.33326 13.9911C8.12262 14.5185 9.05065 14.8 10 14.8C11.2726 14.7986 12.4927 14.2924 13.3925 13.3925C14.2924 12.4927 14.7986 11.2726 14.8 10ZM16.4 4.8C16.4 4.56266 16.3296 4.33066 16.1978 4.13332C16.0659 3.93598 15.8785 3.78217 15.6592 3.69134C15.4399 3.60052 15.1987 3.57676 14.9659 3.62306C14.7331 3.66936 14.5193 3.78365 14.3515 3.95147C14.1837 4.11929 14.0694 4.33311 14.0231 4.56589C13.9768 4.79867 14.0005 5.03995 14.0913 5.25922C14.1822 5.47849 14.336 5.66591 14.5333 5.79776C14.7307 5.92962 14.9627 6 15.2 6C15.5183 6 15.8235 5.87357 16.0485 5.64853C16.2736 5.42348 16.4 5.11826 16.4 4.8Z"/>
</symbol><symbol id="icon-list" viewBox="0 0 12 10">
<path fill-rule="evenodd" clip-rule="evenodd" d="M0.784012 0C1.21752 0 1.56802 0.354189 1.56802 0.791391C1.56802 1.23044 1.21752 1.58278 0.784012 1.58278C0.3505 1.58278 0 1.23044 0 0.791391C0 0.354189 0.3505 0 0.784012 0ZM0.784012 8.10207C1.21752 8.10207 1.56802 8.45626 1.56802 8.89347C1.56802 9.33251 1.21752 9.68486 0.784012 9.68486C0.3505 9.68486 0 9.33251 0 8.89531C0 8.45626 0.3505 8.10207 0.784012 8.10207ZM3.69685 8.10207H11.216C11.6495 8.10207 12 8.4618 12 8.89347C12 9.33251 11.6495 9.68486 11.216 9.68486H3.69685C3.26334 9.68486 2.91284 9.33067 2.91284 8.89347C2.91284 8.4618 3.26334 8.10207 3.69685 8.10207ZM0.784012 4.05473C1.21752 4.05473 1.56802 4.40892 1.56802 4.84612C1.56802 5.27963 1.21752 5.63751 0.784012 5.63751C0.3505 5.63751 0 5.27963 0 4.84612C0 4.40707 0.3505 4.05473 0.784012 4.05473ZM3.69685 4.05473H11.216C11.6495 4.05473 12 4.40892 12 4.84612C12 5.27963 11.6495 5.63751 11.216 5.63751H3.69685C3.26334 5.63751 2.91284 5.27779 2.91284 4.84612C2.91284 4.40707 3.26334 4.05473 3.69685 4.05473ZM3.69685 0H11.216C11.6495 0 12 0.359723 12 0.791391C12 1.23044 11.6495 1.58278 11.216 1.58278H3.69685C3.26334 1.58278 2.91284 1.22859 2.91284 0.791391C2.91284 0.359723 3.26334 0 3.69685 0Z"/>
</symbol><symbol id="icon-login" viewBox="0 0 12 15">
<path fill-rule="evenodd" clip-rule="evenodd" d="M0 11.2191C0 11.9766 0.108838 12.3129 0.75768 12.8478C1.51994 13.4761 2.70682 13.8084 3.70147 13.9949C5.11197 14.2593 6.85788 14.2539 8.26973 14.0002C8.86763 13.8927 9.38958 13.7557 9.89072 13.5757C10.7057 13.283 12 12.5735 12 11.56C12 10.2508 11.6705 9.02091 10.9039 7.98561C10.8373 7.89556 10.8044 7.83868 10.731 7.74951C10.4552 7.41477 10.2049 7.02591 9.81818 7.02591C9.51261 7.02591 9.27273 7.2725 9.27273 7.57136C9.27273 7.83746 9.40032 7.91875 9.53757 8.05652C10.1548 8.67606 10.6346 9.64636 10.8103 10.5338C11.0233 11.6105 10.9214 11.9422 9.84283 12.4028C9.03394 12.7483 7.62723 13.0686 6.75035 13.0604C6.45364 13.0576 6.29796 13.0941 6 13.0941L4.61631 13.0119L3.33806 12.7901C2.98871 12.718 2.52671 12.5677 2.20425 12.4239C1.76707 12.229 1.06127 11.8994 1.08914 11.3228L1.16834 10.6488C1.52965 8.59651 2.69319 8.05579 2.69319 7.67364C2.69319 6.99889 2.09445 6.85397 1.66093 7.2891C0.743273 8.21015 0 9.82696 0 11.2191Z"/>
<path fill-rule="evenodd" clip-rule="evenodd" d="M3.27353 3.82161C3.27353 1.49312 6.15649 0.141961 7.91847 1.90394C8.99259 2.97806 8.97619 4.68763 7.93555 5.72226C6.56911 7.0808 4.37553 6.69676 3.53429 4.95857C3.38292 4.64578 3.27353 4.17572 3.27353 3.82161ZM2.18262 3.65117C2.18262 4.83116 2.48599 5.71023 3.29909 6.52332C3.60637 6.8306 3.93558 7.07644 4.35261 7.27662C6.25358 8.18916 8.5502 7.35653 9.4558 5.46981C10.3551 3.59636 9.57172 1.28961 7.64899 0.366609C6.66589 -0.105328 5.35117 -0.134864 4.37536 0.355269C3.91266 0.587662 3.6458 0.773651 3.29909 1.11991C2.96737 1.45118 2.76914 1.73088 2.54597 2.17361C2.36728 2.52812 2.18262 3.13387 2.18262 3.65117Z"/>
</symbol><symbol id="icon-map" viewBox="0 0 24 31">
<path fill-rule="evenodd" clip-rule="evenodd" d="M2.11764 26.1007C2.2696 25.5316 3.8884 25.0304 4.42755 24.8812C5.06138 24.7059 6.72112 24.3039 7.37967 24.3039C7.61379 24.3039 8.192 25.0427 8.39086 25.2179L11.5508 28.0258C9.57046 28.0258 6.89829 27.7954 5.16231 27.3555C4.76741 27.2554 4.41547 27.1711 4.05029 27.0557C3.53326 26.8925 2.38531 26.466 2.11764 26.1007ZM12.4492 28.0258L16.5562 24.3039C17.0589 24.3039 17.6032 24.4288 18.0696 24.523C18.711 24.6527 21.6868 25.3042 21.8823 26.0365C21.373 26.7972 18.6801 27.3916 17.7172 27.5826C16.1629 27.8911 14.3173 28.0258 12.4492 28.0258ZM12 25.6515C11.7248 25.4672 11.4928 25.2295 11.2473 24.9925C11.0891 24.8397 11.0162 24.8181 10.8601 24.6737C10.7173 24.5416 10.6153 24.428 10.476 24.2878L8.99999 22.8761C8.01078 21.8869 7.13106 20.8823 6.2103 19.8262C5.46487 18.9713 4.34251 17.4788 3.75826 16.5029C3.39021 15.8881 3.02952 15.305 2.7501 14.6233C2.1678 13.2027 2.11764 13.009 2.11764 11.5339C2.11764 9.67095 2.89809 7.70752 3.91367 6.27108C4.61719 5.27605 5.54436 4.32914 6.58844 3.68379C8.57026 2.45883 9.94506 2.1007 12.4492 2.1007C13.7721 2.1007 15.3119 2.56776 16.2147 3.01971L17.712 3.89674C18.1654 4.21732 18.6136 4.57503 19.0108 4.97223C20.656 6.6174 21.8823 9.18897 21.8823 11.5339C21.8823 13.6511 21.2951 14.7563 20.2902 16.423C19.4762 17.7729 18.5074 18.9799 17.4997 20.178C17.3725 20.3292 17.2896 20.3784 17.1608 20.5449C16.6012 21.2683 15.0061 22.8626 14.3265 23.5502C14.0609 23.8188 13.8304 23.9806 13.5561 24.2558C13.4236 24.3887 13.337 24.4788 13.2045 24.61L12 25.6515ZM0 11.8547C0 13.7089 0.650177 15.1426 1.41092 16.6042C2.17585 18.0738 3.88103 20.3784 4.99033 21.6237C5.09308 21.7391 5.13127 21.7592 5.23489 21.8926C5.41121 22.1195 5.57759 22.2434 5.71122 22.443C4.24987 22.5646 0 23.725 0 25.9724C0 29.7074 9.28149 30.1435 12.1283 30.1435C14.9604 30.1435 24 29.6469 24 25.9724C24 24.7461 22.8016 23.9601 21.8617 23.4903C21.3531 23.236 20.7609 23.0446 20.1728 22.8691C19.7621 22.7466 18.7065 22.4523 18.2888 22.443L20.135 20.2464C20.4383 19.8773 20.7116 19.5003 20.9939 19.116C21.292 18.7101 21.5618 18.3232 21.8212 17.8898C22.9521 16.0007 24 14.2479 24 11.8547C24 9.96121 23.505 8.37135 22.9276 7.02331C22.7742 6.66492 22.6219 6.37776 22.4237 6.05127C21.5604 4.6289 21.669 4.95977 20.8556 3.89747C20.7274 3.72995 20.6432 3.65325 20.487 3.49607C20.3292 3.33738 20.2959 3.30628 20.1126 3.16453L18.8763 2.15487C18.5818 1.93743 18.2854 1.77292 17.9716 1.58364C14.1557 -0.717566 8.7631 -0.489116 5.1602 2.12724C4.85195 2.35108 4.6251 2.53531 4.32626 2.76922C3.25205 3.61 2.29721 4.85629 1.60058 6.01144C0.677854 7.5415 0 9.75881 0 11.8547Z"/>
<path fill-rule="evenodd" clip-rule="evenodd" d="M8.91981 11.9823C8.91981 8.84729 13.3289 7.64023 14.7783 10.68C15.937 13.1103 13.4791 15.9567 10.7521 14.7703C9.65176 14.2916 8.91981 13.1282 8.91981 11.9823ZM6.86633 11.7256C6.86633 13.4144 7.30472 14.571 8.35805 15.6243C10.3585 17.6247 13.6416 17.6247 15.642 15.6243C18.9516 12.3147 16.3467 6.84863 12.2567 6.84863C10.5608 6.84863 9.41756 7.28084 8.35805 8.34035C7.64313 9.05524 6.86633 10.3289 6.86633 11.7256Z"/>
</symbol><symbol id="icon-menu" viewBox="0 0 30 12">
<rect x="6" width="24" height="3"/>
<rect y="9" width="30" height="3"/>
</symbol><symbol id="icon-mini-arrow" viewBox="0 0 18 17">
<rect x="9" width="2" height="12" rx="1" transform="rotate(45 9 0)"/>
<rect x="0.514648" y="8.48523" width="2" height="12" rx="1" transform="rotate(-45 0.514648 8.48523)"/>
</symbol><symbol id="icon-okey" viewBox="0 0 37 37">
<rect y="22" width="6" height="21" rx="3" transform="rotate(-45 0 22)"/>
<rect x="14.8491" y="36.8492" width="6" height="30" rx="3" transform="rotate(-135 14.8491 36.8492)"/>
</symbol><symbol id="icon-tg" viewBox="0 0 35 29">
<path d="M13.696 19.1456L26.6751 28.6081C28.15 29.4033 29.2227 29.0057 29.5981 27.2563L34.8809 2.65916C35.4172 0.512212 34.0496 -0.441987 32.6283 0.194147L1.62871 12.0156C-0.489773 12.8638 -0.462957 14.0301 1.25329 14.5337L9.21772 16.9987L27.6405 5.52177C28.4986 4.99165 29.3031 5.28322 28.6595 5.86634L13.696 19.1456Z"/>
</symbol><symbol id="icon-vk" viewBox="0 0 20 12">
<path d="M16.5958 6.69C16.2725 6.28167 16.365 6.1 16.5958 5.735C16.6 5.73084 19.2692 2.0425 19.5442 0.791667L19.5458 0.790834C19.6825 0.335 19.5458 0 18.885 0H16.6983C16.1417 0 15.885 0.2875 15.7475 0.609167C15.7475 0.609167 14.6342 3.27417 13.0592 5.00167C12.5508 5.50084 12.3158 5.66084 12.0383 5.66084C11.9017 5.66084 11.6892 5.50084 11.6892 5.045V0.790834C11.6892 0.244167 11.5333 0 11.0725 0H7.63416C7.285 0 7.0775 0.255 7.0775 0.4925C7.0775 1.01083 7.865 1.13 7.94666 2.58834V5.7525C7.94666 6.44584 7.82083 6.57334 7.54166 6.57334C6.79833 6.57334 4.99416 3.8975 3.925 0.835001C3.70917 0.240833 3.49833 0.000833274 2.9375 0.000833274H0.75C0.125833 0.000833274 0 0.288333 0 0.61C0 1.17833 0.743333 4.00417 3.45667 7.73751C5.265 10.2858 7.81166 11.6667 10.1283 11.6667C11.5208 11.6667 11.6908 11.36 11.6908 10.8325C11.6908 8.39751 11.565 8.16751 12.2625 8.16751C12.5858 8.16751 13.1425 8.32751 14.4425 9.55667C15.9283 11.0142 16.1725 11.6667 17.0042 11.6667H19.1908C19.8142 11.6667 20.13 11.36 19.9483 10.755C19.5325 9.48251 16.7225 6.86501 16.5958 6.69Z"/>
</symbol><symbol id="icon-whatsapp" viewBox="0 0 34 34">
<path d="M0 34L2.37826 25.5525C0.849227 22.9536 0.0436867 19.9968 0.0436867 16.96C0.0436867 7.60789 7.65157 0 17.0037 0C26.3559 0 33.9638 7.60789 33.9638 16.96C33.9638 26.3122 26.3559 33.9201 17.0037 33.9201C14.0895 33.9201 11.2371 33.1742 8.71284 31.7581L0 34ZM9.15717 28.6723L9.67608 28.9888C11.8764 30.3324 14.4102 31.0421 17.0027 31.0421C24.7682 31.0421 31.0858 24.7246 31.0858 16.959C31.0858 9.19339 24.7682 2.87693 17.0037 2.87693C9.23921 2.87693 2.92062 9.19446 2.92062 16.96C2.92062 19.6654 3.68993 22.293 5.14438 24.5583L5.49387 25.1028L4.1236 29.967L9.15717 28.6723Z"/>
<path d="M12.2385 9.06654L11.1378 9.00687C10.7926 8.98769 10.4527 9.10383 10.1916 9.33079C9.6578 9.7943 8.80537 10.6893 8.54325 11.8572C8.1522 13.5972 8.75636 15.7282 10.3195 17.8593C11.8826 19.9904 14.7947 23.4001 19.9444 24.8566C21.6045 25.3255 22.9098 25.009 23.9167 24.3654C24.7148 23.855 25.2646 23.0356 25.4628 22.1097L25.6386 21.2892C25.694 21.0282 25.5619 20.7639 25.32 20.6521L21.6013 18.9376C21.3594 18.8268 21.0739 18.8971 20.9109 19.107L19.4511 20.9994C19.3403 21.1422 19.1517 21.1987 18.9812 21.139C17.9817 20.7874 14.6317 19.3851 12.7937 15.8444C12.7137 15.6909 12.734 15.5045 12.8469 15.3734L14.2428 13.7591C14.3856 13.594 14.4218 13.3628 14.3355 13.1624L12.7319 9.41177C12.6466 9.21145 12.4559 9.07826 12.2385 9.06654Z"/>
</symbol><symbol id="icon-youtube" viewBox="0 0 25 17">
<path fill-rule="evenodd" clip-rule="evenodd" d="M21.64 0.52C22.68 0.8 23.5 1.62 23.78 2.66C24.3 4.56 24.28 8.52 24.28 8.52C24.28 8.52 24.28 12.46 23.78 14.36C23.5 15.4 22.68 16.22 21.64 16.5C19.74 17 12.14 17 12.14 17C12.14 17 4.56 17 2.64 16.48C1.6 16.2 0.78 15.38 0.5 14.34C0 12.46 0 8.5 0 8.5C0 8.5 0 4.56 0.5 2.66C0.78 1.62 1.62 0.78 2.64 0.5C4.54 0 12.14 0 12.14 0C12.14 0 19.74 0 21.64 0.52ZM9.71973 4.85938L16.0397 8.49938L9.71973 12.1394V4.85938Z"/>
</symbol></svg>